<svg width="222" height="42" viewBox="0 0 222 42" fill="none" xmlns="http://www.w3.org/2000/svg">
<path opacity="0.5" d="M40.0652 2.25671L30.2601 36.9917C30.2102 37.1494 30.0108 37.1967 29.8945 37.0863L23.3301 30.8583L28.2492 13.4514C28.2991 13.2937 28.1495 13.1518 27.9833 13.1991L9.63617 17.8662L3.10498 11.6697C2.98865 11.5593 3.03851 11.3701 3.20469 11.3228L39.7993 2.00444C39.9655 1.97291 40.115 2.11481 40.0652 2.25671Z" fill="#00B37E"/>
<path opacity="0.5" d="M23.3297 30.858L20.8037 39.8452C20.7538 40.0029 20.5544 40.0502 20.4381 39.9398L0.0634003 20.6251C-0.0529313 20.5147 -0.00307518 20.3255 0.163113 20.2782L9.63583 17.8658L23.3297 30.858Z" fill="#00B37E"/>
<path d="M28.2484 13.4511L23.3292 30.858L9.63533 17.8659L27.9825 13.1988C28.1487 13.1515 28.2982 13.2934 28.2484 13.4511Z" fill="#00B37E"/>
<path d="M57.6898 11.3104H64.4734C65.8643 11.3104 67.0594 11.5186 68.0589 11.9351C69.0666 12.3515 69.8412 12.9678 70.3825 13.784C70.9239 14.6002 71.1946 15.6038 71.1946 16.7948C71.1946 17.7692 71.028 18.6062 70.6949 19.3058C70.37 19.9971 69.9078 20.576 69.3082 21.0424C68.7168 21.5004 68.0214 21.8669 67.2219 22.1417L66.035 22.7664H60.1384L60.1134 19.843H64.4984C65.1564 19.843 65.7019 19.7264 66.135 19.4932C66.5681 19.26 66.8929 18.9352 67.1094 18.5188C67.3343 18.1024 67.4467 17.6193 67.4467 17.0696C67.4467 16.4866 67.3385 15.9828 67.1219 15.558C66.9054 15.1332 66.5764 14.8084 66.135 14.5836C65.6936 14.3587 65.1397 14.2462 64.4734 14.2462H61.4377V29.5H57.6898V11.3104ZM67.859 29.5L63.7114 21.3922L67.6716 21.3672L71.8692 29.3251V29.5H67.859ZM73.2809 22.8788V22.6164C73.2809 21.6253 73.4225 20.7134 73.7056 19.8805C73.9888 19.0393 74.4011 18.3106 74.9424 17.6943C75.4838 17.078 76.1501 16.5991 76.9413 16.2576C77.7325 15.9078 78.6403 15.7329 79.6647 15.7329C80.6891 15.7329 81.6011 15.9078 82.4006 16.2576C83.2002 16.5991 83.8706 17.078 84.412 17.6943C84.9617 18.3106 85.3781 19.0393 85.6613 19.8805C85.9444 20.7134 86.086 21.6253 86.086 22.6164V22.8788C86.086 23.8616 85.9444 24.7735 85.6613 25.6147C85.3781 26.4476 84.9617 27.1763 84.412 27.801C83.8706 28.4173 83.2044 28.8962 82.4131 29.2377C81.6219 29.5791 80.7141 29.7499 79.6897 29.7499C78.6653 29.7499 77.7533 29.5791 76.9538 29.2377C76.1626 28.8962 75.4921 28.4173 74.9424 27.801C74.4011 27.1763 73.9888 26.4476 73.7056 25.6147C73.4225 24.7735 73.2809 23.8616 73.2809 22.8788ZM76.8788 22.6164V22.8788C76.8788 23.4451 76.9288 23.974 77.0287 24.4654C77.1287 24.9568 77.2869 25.3899 77.5035 25.7646C77.7283 26.1311 78.0198 26.4184 78.378 26.6266C78.7361 26.8349 79.1733 26.939 79.6897 26.939C80.1894 26.939 80.6183 26.8349 80.9765 26.6266C81.3346 26.4184 81.6219 26.1311 81.8385 25.7646C82.055 25.3899 82.2133 24.9568 82.3132 24.4654C82.4215 23.974 82.4756 23.4451 82.4756 22.8788V22.6164C82.4756 22.0668 82.4215 21.5504 82.3132 21.0673C82.2133 20.576 82.0508 20.1429 81.826 19.7681C81.6094 19.385 81.3221 19.0851 80.964 18.8686C80.6058 18.6521 80.1728 18.5438 79.6647 18.5438C79.1567 18.5438 78.7236 18.6521 78.3655 18.8686C78.0157 19.0851 77.7283 19.385 77.5035 19.7681C77.2869 20.1429 77.1287 20.576 77.0287 21.0673C76.9288 21.5504 76.8788 22.0668 76.8788 22.6164ZM93.8816 26.939C94.323 26.939 94.7144 26.8557 95.0559 26.6891C95.3974 26.5142 95.6639 26.2727 95.8554 25.9645C96.0553 25.648 96.1594 25.2774 96.1677 24.8527H99.5533C99.545 25.8021 99.291 26.6475 98.7912 27.3887C98.2915 28.1216 97.6211 28.7005 96.7799 29.1252C95.9387 29.5416 94.9976 29.7499 93.9565 29.7499C92.9071 29.7499 91.991 29.575 91.2081 29.2252C90.4335 28.8754 89.7881 28.3923 89.2717 27.776C88.7553 27.1513 88.3681 26.4268 88.1099 25.6022C87.8517 24.7694 87.7226 23.8782 87.7226 22.9288V22.5665C87.7226 21.6087 87.8517 20.7175 88.1099 19.893C88.3681 19.0602 88.7553 18.3356 89.2717 17.7193C89.7881 17.0946 90.4335 16.6074 91.2081 16.2576C91.9826 15.9078 92.8905 15.7329 93.9315 15.7329C95.0392 15.7329 96.0095 15.9453 96.8424 16.37C97.6835 16.7948 98.3415 17.4028 98.8162 18.194C99.2993 18.9769 99.545 19.9055 99.5533 20.9799H96.1677C96.1594 20.5301 96.0636 20.122 95.8804 19.7556C95.7055 19.3891 95.4473 19.0976 95.1059 18.8811C94.7727 18.6562 94.3605 18.5438 93.8691 18.5438C93.3444 18.5438 92.9154 18.6562 92.5823 18.8811C92.2492 19.0976 91.991 19.3975 91.8077 19.7806C91.6245 20.1554 91.4954 20.5843 91.4205 21.0673C91.3538 21.5421 91.3205 22.0418 91.3205 22.5665V22.9288C91.3205 23.4535 91.3538 23.9573 91.4205 24.4404C91.4871 24.9235 91.612 25.3524 91.7953 25.7272C91.9868 26.1019 92.2492 26.3976 92.5823 26.6142C92.9154 26.8307 93.3485 26.939 93.8816 26.939ZM105.238 10.2985V29.5H101.64V10.2985H105.238ZM113.758 15.9828L107.886 22.6789L104.738 25.8646L103.426 23.2661L105.925 20.0929L109.435 15.9828H113.758ZM110.022 29.5L106.025 23.2536L108.511 21.0798L114.17 29.5H110.022ZM121.278 29.7499C120.229 29.7499 119.288 29.5833 118.455 29.2501C117.622 28.9087 116.914 28.4381 116.331 27.8385C115.757 27.2388 115.315 26.5434 115.007 25.7521C114.699 24.9526 114.545 24.1031 114.545 23.2036V22.7039C114.545 21.6795 114.69 20.7425 114.982 19.893C115.273 19.0435 115.69 18.3064 116.231 17.6818C116.781 17.0571 117.447 16.5782 118.23 16.2451C119.013 15.9036 119.896 15.7329 120.879 15.7329C121.836 15.7329 122.686 15.8911 123.427 16.2076C124.168 16.5241 124.789 16.9739 125.289 17.5569C125.797 18.1398 126.18 18.8394 126.438 19.6556C126.696 20.4635 126.825 21.363 126.825 22.3541V23.8532H116.081V21.4546H123.29V21.1798C123.29 20.6801 123.198 20.2345 123.015 19.843C122.84 19.4433 122.573 19.1268 122.215 18.8936C121.857 18.6604 121.399 18.5438 120.841 18.5438C120.366 18.5438 119.958 18.6479 119.617 18.8561C119.275 19.0643 118.996 19.3558 118.78 19.7306C118.572 20.1054 118.413 20.5468 118.305 21.0548C118.205 21.5546 118.155 22.1042 118.155 22.7039V23.2036C118.155 23.745 118.23 24.2447 118.38 24.7028C118.538 25.1608 118.759 25.5564 119.042 25.8896C119.334 26.2227 119.683 26.4809 120.092 26.6641C120.508 26.8474 120.979 26.939 121.503 26.939C122.153 26.939 122.757 26.814 123.315 26.5642C123.881 26.306 124.368 25.9187 124.776 25.4024L126.525 27.3013C126.242 27.7094 125.855 28.1008 125.364 28.4756C124.88 28.8504 124.297 29.1585 123.615 29.4001C122.932 29.6333 122.153 29.7499 121.278 29.7499ZM135.495 15.9828V18.5313H127.625V15.9828H135.495ZM129.574 12.6472H133.172V25.4273C133.172 25.8188 133.221 26.1186 133.321 26.3268C133.43 26.535 133.588 26.6808 133.796 26.7641C134.004 26.839 134.267 26.8765 134.583 26.8765C134.808 26.8765 135.008 26.8682 135.183 26.8515C135.366 26.8265 135.52 26.8015 135.645 26.7766L135.658 29.425C135.349 29.525 135.016 29.6041 134.658 29.6624C134.3 29.7207 133.904 29.7499 133.471 29.7499C132.68 29.7499 131.989 29.6208 131.398 29.3626C130.815 29.0961 130.365 28.6713 130.048 28.0883C129.732 27.5053 129.574 26.7391 129.574 25.7896V12.6472ZM145.852 11.3104H149.025L153.697 24.6653L158.37 11.3104H161.543L154.972 29.5H152.423L145.852 11.3104ZM144.14 11.3104H147.301L147.876 24.328V29.5H144.14V11.3104ZM160.094 11.3104H163.267V29.5H159.519V24.328L160.094 11.3104ZM165.753 22.8788V22.6164C165.753 21.6253 165.894 20.7134 166.178 19.8805C166.461 19.0393 166.873 18.3106 167.414 17.6943C167.956 17.078 168.622 16.5991 169.413 16.2576C170.204 15.9078 171.112 15.7329 172.137 15.7329C173.161 15.7329 174.073 15.9078 174.873 16.2576C175.672 16.5991 176.343 17.078 176.884 17.6943C177.434 18.3106 177.85 19.0393 178.133 19.8805C178.416 20.7134 178.558 21.6253 178.558 22.6164V22.8788C178.558 23.8616 178.416 24.7735 178.133 25.6147C177.85 26.4476 177.434 27.1763 176.884 27.801C176.343 28.4173 175.676 28.8962 174.885 29.2377C174.094 29.5791 173.186 29.7499 172.162 29.7499C171.137 29.7499 170.225 29.5791 169.426 29.2377C168.635 28.8962 167.964 28.4173 167.414 27.801C166.873 27.1763 166.461 26.4476 166.178 25.6147C165.894 24.7735 165.753 23.8616 165.753 22.8788ZM169.351 22.6164V22.8788C169.351 23.4451 169.401 23.974 169.501 24.4654C169.601 24.9568 169.759 25.3899 169.975 25.7646C170.2 26.1311 170.492 26.4184 170.85 26.6266C171.208 26.8349 171.645 26.939 172.162 26.939C172.661 26.939 173.09 26.8349 173.448 26.6266C173.807 26.4184 174.094 26.1311 174.31 25.7646C174.527 25.3899 174.685 24.9568 174.785 24.4654C174.893 23.974 174.948 23.4451 174.948 22.8788V22.6164C174.948 22.0668 174.893 21.5504 174.785 21.0673C174.685 20.576 174.523 20.1429 174.298 19.7681C174.081 19.385 173.794 19.0851 173.436 18.8686C173.078 18.6521 172.645 18.5438 172.137 18.5438C171.629 18.5438 171.196 18.6521 170.837 18.8686C170.488 19.0851 170.2 19.385 169.975 19.7681C169.759 20.1429 169.601 20.576 169.501 21.0673C169.401 21.5504 169.351 22.0668 169.351 22.6164ZM184.292 18.8686V29.5H180.694V15.9828H184.067L184.292 18.8686ZM183.768 22.2666H182.793C182.793 21.2672 182.922 20.3677 183.18 19.5682C183.439 18.7603 183.801 18.0732 184.267 17.5069C184.734 16.9322 185.287 16.495 185.929 16.1951C186.578 15.887 187.303 15.7329 188.103 15.7329C188.735 15.7329 189.314 15.8245 189.839 16.0077C190.364 16.191 190.813 16.4825 191.188 16.8822C191.571 17.282 191.863 17.8109 192.063 18.4688C192.271 19.1268 192.375 19.9305 192.375 20.8799V29.5H188.752V20.8675C188.752 20.2678 188.669 19.8014 188.502 19.4683C188.336 19.1351 188.09 18.9019 187.765 18.7687C187.449 18.6271 187.057 18.5563 186.591 18.5563C186.108 18.5563 185.687 18.6521 185.329 18.8436C184.979 19.0352 184.688 19.3017 184.455 19.6432C184.23 19.9763 184.059 20.3677 183.942 20.8175C183.826 21.2672 183.768 21.7503 183.768 22.2666ZM201.332 29.7499C200.283 29.7499 199.342 29.5833 198.509 29.2501C197.676 28.9087 196.968 28.4381 196.385 27.8385C195.811 27.2388 195.369 26.5434 195.061 25.7521C194.753 24.9526 194.599 24.1031 194.599 23.2036V22.7039C194.599 21.6795 194.745 20.7425 195.036 19.893C195.328 19.0435 195.744 18.3064 196.285 17.6818C196.835 17.0571 197.501 16.5782 198.284 16.2451C199.067 15.9036 199.95 15.7329 200.933 15.7329C201.89 15.7329 202.74 15.8911 203.481 16.2076C204.222 16.5241 204.843 16.9739 205.343 17.5569C205.851 18.1398 206.234 18.8394 206.492 19.6556C206.75 20.4635 206.879 21.363 206.879 22.3541V23.8532H196.135V21.4546H203.344V21.1798C203.344 20.6801 203.252 20.2345 203.069 19.843C202.894 19.4433 202.628 19.1268 202.269 18.8936C201.911 18.6604 201.453 18.5438 200.895 18.5438C200.42 18.5438 200.012 18.6479 199.671 18.8561C199.329 19.0643 199.05 19.3558 198.834 19.7306C198.626 20.1054 198.467 20.5468 198.359 21.0548C198.259 21.5546 198.209 22.1042 198.209 22.7039V23.2036C198.209 23.745 198.284 24.2447 198.434 24.7028C198.592 25.1608 198.813 25.5564 199.096 25.8896C199.388 26.2227 199.738 26.4809 200.146 26.6641C200.562 26.8474 201.033 26.939 201.557 26.939C202.207 26.939 202.811 26.814 203.369 26.5642C203.935 26.306 204.422 25.9187 204.83 25.4024L206.579 27.3013C206.296 27.7094 205.909 28.1008 205.418 28.4756C204.935 28.8504 204.352 29.1585 203.669 29.4001C202.986 29.6333 202.207 29.7499 201.332 29.7499ZM212.763 27.9759L216.349 15.9828H220.209L214.775 31.5363C214.658 31.8778 214.5 32.2443 214.3 32.6357C214.108 33.0271 213.846 33.3978 213.513 33.7476C213.188 34.1057 212.776 34.3972 212.276 34.6221C211.785 34.8469 211.181 34.9594 210.465 34.9594C210.123 34.9594 209.844 34.9385 209.628 34.8969C209.411 34.8553 209.153 34.797 208.853 34.722V32.086C208.945 32.086 209.041 32.086 209.14 32.086C209.24 32.0943 209.336 32.0985 209.428 32.0985C209.903 32.0985 210.29 32.0444 210.59 31.9361C210.889 31.8278 211.131 31.6613 211.314 31.4364C211.497 31.2198 211.643 30.9367 211.751 30.5869L212.763 27.9759ZM211.264 15.9828L214.2 25.7771L214.712 29.5874L212.264 29.8498L207.404 15.9828H211.264Z" fill="#E1E1E6"/>
</svg>
